%TF.GenerationSoftware,KiCad,Pcbnew,8.0.1*%
%TF.CreationDate,2024-04-21T19:07:30-04:00*%
%TF.ProjectId,Semaforo,53656d61-666f-4726-9f2e-6b696361645f,Andres La Madrid*%
%TF.SameCoordinates,Original*%
%TF.FileFunction,Legend,Top*%
%TF.FilePolarity,Positive*%
%FSLAX46Y46*%
G04 Gerber Fmt 4.6, Leading zero omitted, Abs format (unit mm)*
G04 Created by KiCad (PCBNEW 8.0.1) date 2024-04-21 19:07:30*
%MOMM*%
%LPD*%
G01*
G04 APERTURE LIST*
%ADD10C,0.300000*%
%ADD11C,0.150000*%
%ADD12C,0.120000*%
G04 APERTURE END LIST*
D10*
X40289653Y-59890080D02*
X41289653Y-59890080D01*
X41289653Y-59890080D02*
X40289653Y-61390080D01*
X40289653Y-61390080D02*
X41289653Y-61390080D01*
X42075367Y-61390080D02*
X41932510Y-61318652D01*
X41932510Y-61318652D02*
X41861081Y-61247223D01*
X41861081Y-61247223D02*
X41789653Y-61104366D01*
X41789653Y-61104366D02*
X41789653Y-60675794D01*
X41789653Y-60675794D02*
X41861081Y-60532937D01*
X41861081Y-60532937D02*
X41932510Y-60461509D01*
X41932510Y-60461509D02*
X42075367Y-60390080D01*
X42075367Y-60390080D02*
X42289653Y-60390080D01*
X42289653Y-60390080D02*
X42432510Y-60461509D01*
X42432510Y-60461509D02*
X42503939Y-60532937D01*
X42503939Y-60532937D02*
X42575367Y-60675794D01*
X42575367Y-60675794D02*
X42575367Y-61104366D01*
X42575367Y-61104366D02*
X42503939Y-61247223D01*
X42503939Y-61247223D02*
X42432510Y-61318652D01*
X42432510Y-61318652D02*
X42289653Y-61390080D01*
X42289653Y-61390080D02*
X42075367Y-61390080D01*
X43218224Y-60390080D02*
X43218224Y-61390080D01*
X43218224Y-60532937D02*
X43289653Y-60461509D01*
X43289653Y-60461509D02*
X43432510Y-60390080D01*
X43432510Y-60390080D02*
X43646796Y-60390080D01*
X43646796Y-60390080D02*
X43789653Y-60461509D01*
X43789653Y-60461509D02*
X43861082Y-60604366D01*
X43861082Y-60604366D02*
X43861082Y-61390080D01*
X45218225Y-61390080D02*
X45218225Y-60604366D01*
X45218225Y-60604366D02*
X45146796Y-60461509D01*
X45146796Y-60461509D02*
X45003939Y-60390080D01*
X45003939Y-60390080D02*
X44718225Y-60390080D01*
X44718225Y-60390080D02*
X44575367Y-60461509D01*
X45218225Y-61318652D02*
X45075367Y-61390080D01*
X45075367Y-61390080D02*
X44718225Y-61390080D01*
X44718225Y-61390080D02*
X44575367Y-61318652D01*
X44575367Y-61318652D02*
X44503939Y-61175794D01*
X44503939Y-61175794D02*
X44503939Y-61032937D01*
X44503939Y-61032937D02*
X44575367Y-60890080D01*
X44575367Y-60890080D02*
X44718225Y-60818652D01*
X44718225Y-60818652D02*
X45075367Y-60818652D01*
X45075367Y-60818652D02*
X45218225Y-60747223D01*
X47718225Y-61390080D02*
X47718225Y-59890080D01*
X47718225Y-61318652D02*
X47575367Y-61390080D01*
X47575367Y-61390080D02*
X47289653Y-61390080D01*
X47289653Y-61390080D02*
X47146796Y-61318652D01*
X47146796Y-61318652D02*
X47075367Y-61247223D01*
X47075367Y-61247223D02*
X47003939Y-61104366D01*
X47003939Y-61104366D02*
X47003939Y-60675794D01*
X47003939Y-60675794D02*
X47075367Y-60532937D01*
X47075367Y-60532937D02*
X47146796Y-60461509D01*
X47146796Y-60461509D02*
X47289653Y-60390080D01*
X47289653Y-60390080D02*
X47575367Y-60390080D01*
X47575367Y-60390080D02*
X47718225Y-60461509D01*
X49003939Y-61318652D02*
X48861082Y-61390080D01*
X48861082Y-61390080D02*
X48575368Y-61390080D01*
X48575368Y-61390080D02*
X48432510Y-61318652D01*
X48432510Y-61318652D02*
X48361082Y-61175794D01*
X48361082Y-61175794D02*
X48361082Y-60604366D01*
X48361082Y-60604366D02*
X48432510Y-60461509D01*
X48432510Y-60461509D02*
X48575368Y-60390080D01*
X48575368Y-60390080D02*
X48861082Y-60390080D01*
X48861082Y-60390080D02*
X49003939Y-60461509D01*
X49003939Y-60461509D02*
X49075368Y-60604366D01*
X49075368Y-60604366D02*
X49075368Y-60747223D01*
X49075368Y-60747223D02*
X48361082Y-60890080D01*
X51503939Y-61318652D02*
X51361081Y-61390080D01*
X51361081Y-61390080D02*
X51075367Y-61390080D01*
X51075367Y-61390080D02*
X50932510Y-61318652D01*
X50932510Y-61318652D02*
X50861081Y-61247223D01*
X50861081Y-61247223D02*
X50789653Y-61104366D01*
X50789653Y-61104366D02*
X50789653Y-60675794D01*
X50789653Y-60675794D02*
X50861081Y-60532937D01*
X50861081Y-60532937D02*
X50932510Y-60461509D01*
X50932510Y-60461509D02*
X51075367Y-60390080D01*
X51075367Y-60390080D02*
X51361081Y-60390080D01*
X51361081Y-60390080D02*
X51503939Y-60461509D01*
X52361081Y-61390080D02*
X52218224Y-61318652D01*
X52218224Y-61318652D02*
X52146795Y-61247223D01*
X52146795Y-61247223D02*
X52075367Y-61104366D01*
X52075367Y-61104366D02*
X52075367Y-60675794D01*
X52075367Y-60675794D02*
X52146795Y-60532937D01*
X52146795Y-60532937D02*
X52218224Y-60461509D01*
X52218224Y-60461509D02*
X52361081Y-60390080D01*
X52361081Y-60390080D02*
X52575367Y-60390080D01*
X52575367Y-60390080D02*
X52718224Y-60461509D01*
X52718224Y-60461509D02*
X52789653Y-60532937D01*
X52789653Y-60532937D02*
X52861081Y-60675794D01*
X52861081Y-60675794D02*
X52861081Y-61104366D01*
X52861081Y-61104366D02*
X52789653Y-61247223D01*
X52789653Y-61247223D02*
X52718224Y-61318652D01*
X52718224Y-61318652D02*
X52575367Y-61390080D01*
X52575367Y-61390080D02*
X52361081Y-61390080D01*
X53503938Y-61390080D02*
X53503938Y-59890080D01*
X53503938Y-60461509D02*
X53646796Y-60390080D01*
X53646796Y-60390080D02*
X53932510Y-60390080D01*
X53932510Y-60390080D02*
X54075367Y-60461509D01*
X54075367Y-60461509D02*
X54146796Y-60532937D01*
X54146796Y-60532937D02*
X54218224Y-60675794D01*
X54218224Y-60675794D02*
X54218224Y-61104366D01*
X54218224Y-61104366D02*
X54146796Y-61247223D01*
X54146796Y-61247223D02*
X54075367Y-61318652D01*
X54075367Y-61318652D02*
X53932510Y-61390080D01*
X53932510Y-61390080D02*
X53646796Y-61390080D01*
X53646796Y-61390080D02*
X53503938Y-61318652D01*
X54861081Y-61390080D02*
X54861081Y-60390080D01*
X54861081Y-60675794D02*
X54932510Y-60532937D01*
X54932510Y-60532937D02*
X55003939Y-60461509D01*
X55003939Y-60461509D02*
X55146796Y-60390080D01*
X55146796Y-60390080D02*
X55289653Y-60390080D01*
X56361081Y-61318652D02*
X56218224Y-61390080D01*
X56218224Y-61390080D02*
X55932510Y-61390080D01*
X55932510Y-61390080D02*
X55789652Y-61318652D01*
X55789652Y-61318652D02*
X55718224Y-61175794D01*
X55718224Y-61175794D02*
X55718224Y-60604366D01*
X55718224Y-60604366D02*
X55789652Y-60461509D01*
X55789652Y-60461509D02*
X55932510Y-60390080D01*
X55932510Y-60390080D02*
X56218224Y-60390080D01*
X56218224Y-60390080D02*
X56361081Y-60461509D01*
X56361081Y-60461509D02*
X56432510Y-60604366D01*
X56432510Y-60604366D02*
X56432510Y-60747223D01*
X56432510Y-60747223D02*
X55718224Y-60890080D01*
X57075366Y-61247223D02*
X57146795Y-61318652D01*
X57146795Y-61318652D02*
X57075366Y-61390080D01*
X57075366Y-61390080D02*
X57003938Y-61318652D01*
X57003938Y-61318652D02*
X57075366Y-61247223D01*
X57075366Y-61247223D02*
X57075366Y-61390080D01*
X57075366Y-60461509D02*
X57146795Y-60532937D01*
X57146795Y-60532937D02*
X57075366Y-60604366D01*
X57075366Y-60604366D02*
X57003938Y-60532937D01*
X57003938Y-60532937D02*
X57075366Y-60461509D01*
X57075366Y-60461509D02*
X57075366Y-60604366D01*
X40432510Y-63233568D02*
X41575368Y-63233568D01*
X43432510Y-63804996D02*
X43432510Y-62304996D01*
X43432510Y-62304996D02*
X43932510Y-63376425D01*
X43932510Y-63376425D02*
X44432510Y-62304996D01*
X44432510Y-62304996D02*
X44432510Y-63804996D01*
X45789654Y-63804996D02*
X45789654Y-63019282D01*
X45789654Y-63019282D02*
X45718225Y-62876425D01*
X45718225Y-62876425D02*
X45575368Y-62804996D01*
X45575368Y-62804996D02*
X45289654Y-62804996D01*
X45289654Y-62804996D02*
X45146796Y-62876425D01*
X45789654Y-63733568D02*
X45646796Y-63804996D01*
X45646796Y-63804996D02*
X45289654Y-63804996D01*
X45289654Y-63804996D02*
X45146796Y-63733568D01*
X45146796Y-63733568D02*
X45075368Y-63590710D01*
X45075368Y-63590710D02*
X45075368Y-63447853D01*
X45075368Y-63447853D02*
X45146796Y-63304996D01*
X45146796Y-63304996D02*
X45289654Y-63233568D01*
X45289654Y-63233568D02*
X45646796Y-63233568D01*
X45646796Y-63233568D02*
X45789654Y-63162139D01*
X46503939Y-63804996D02*
X46503939Y-62804996D01*
X46503939Y-63090710D02*
X46575368Y-62947853D01*
X46575368Y-62947853D02*
X46646797Y-62876425D01*
X46646797Y-62876425D02*
X46789654Y-62804996D01*
X46789654Y-62804996D02*
X46932511Y-62804996D01*
X48075368Y-62804996D02*
X48075368Y-64019282D01*
X48075368Y-64019282D02*
X48003939Y-64162139D01*
X48003939Y-64162139D02*
X47932510Y-64233568D01*
X47932510Y-64233568D02*
X47789653Y-64304996D01*
X47789653Y-64304996D02*
X47575368Y-64304996D01*
X47575368Y-64304996D02*
X47432510Y-64233568D01*
X48075368Y-63733568D02*
X47932510Y-63804996D01*
X47932510Y-63804996D02*
X47646796Y-63804996D01*
X47646796Y-63804996D02*
X47503939Y-63733568D01*
X47503939Y-63733568D02*
X47432510Y-63662139D01*
X47432510Y-63662139D02*
X47361082Y-63519282D01*
X47361082Y-63519282D02*
X47361082Y-63090710D01*
X47361082Y-63090710D02*
X47432510Y-62947853D01*
X47432510Y-62947853D02*
X47503939Y-62876425D01*
X47503939Y-62876425D02*
X47646796Y-62804996D01*
X47646796Y-62804996D02*
X47932510Y-62804996D01*
X47932510Y-62804996D02*
X48075368Y-62876425D01*
X49361082Y-63733568D02*
X49218225Y-63804996D01*
X49218225Y-63804996D02*
X48932511Y-63804996D01*
X48932511Y-63804996D02*
X48789653Y-63733568D01*
X48789653Y-63733568D02*
X48718225Y-63590710D01*
X48718225Y-63590710D02*
X48718225Y-63019282D01*
X48718225Y-63019282D02*
X48789653Y-62876425D01*
X48789653Y-62876425D02*
X48932511Y-62804996D01*
X48932511Y-62804996D02*
X49218225Y-62804996D01*
X49218225Y-62804996D02*
X49361082Y-62876425D01*
X49361082Y-62876425D02*
X49432511Y-63019282D01*
X49432511Y-63019282D02*
X49432511Y-63162139D01*
X49432511Y-63162139D02*
X48718225Y-63304996D01*
X50075367Y-62804996D02*
X50075367Y-63804996D01*
X50075367Y-62947853D02*
X50146796Y-62876425D01*
X50146796Y-62876425D02*
X50289653Y-62804996D01*
X50289653Y-62804996D02*
X50503939Y-62804996D01*
X50503939Y-62804996D02*
X50646796Y-62876425D01*
X50646796Y-62876425D02*
X50718225Y-63019282D01*
X50718225Y-63019282D02*
X50718225Y-63804996D01*
X51432510Y-63662139D02*
X51503939Y-63733568D01*
X51503939Y-63733568D02*
X51432510Y-63804996D01*
X51432510Y-63804996D02*
X51361082Y-63733568D01*
X51361082Y-63733568D02*
X51432510Y-63662139D01*
X51432510Y-63662139D02*
X51432510Y-63804996D01*
X51432510Y-62876425D02*
X51503939Y-62947853D01*
X51503939Y-62947853D02*
X51432510Y-63019282D01*
X51432510Y-63019282D02*
X51361082Y-62947853D01*
X51361082Y-62947853D02*
X51432510Y-62876425D01*
X51432510Y-62876425D02*
X51432510Y-63019282D01*
X53575368Y-62304996D02*
X53718225Y-62304996D01*
X53718225Y-62304996D02*
X53861082Y-62376425D01*
X53861082Y-62376425D02*
X53932511Y-62447853D01*
X53932511Y-62447853D02*
X54003939Y-62590710D01*
X54003939Y-62590710D02*
X54075368Y-62876425D01*
X54075368Y-62876425D02*
X54075368Y-63233568D01*
X54075368Y-63233568D02*
X54003939Y-63519282D01*
X54003939Y-63519282D02*
X53932511Y-63662139D01*
X53932511Y-63662139D02*
X53861082Y-63733568D01*
X53861082Y-63733568D02*
X53718225Y-63804996D01*
X53718225Y-63804996D02*
X53575368Y-63804996D01*
X53575368Y-63804996D02*
X53432511Y-63733568D01*
X53432511Y-63733568D02*
X53361082Y-63662139D01*
X53361082Y-63662139D02*
X53289653Y-63519282D01*
X53289653Y-63519282D02*
X53218225Y-63233568D01*
X53218225Y-63233568D02*
X53218225Y-62876425D01*
X53218225Y-62876425D02*
X53289653Y-62590710D01*
X53289653Y-62590710D02*
X53361082Y-62447853D01*
X53361082Y-62447853D02*
X53432511Y-62376425D01*
X53432511Y-62376425D02*
X53575368Y-62304996D01*
X54718224Y-63662139D02*
X54789653Y-63733568D01*
X54789653Y-63733568D02*
X54718224Y-63804996D01*
X54718224Y-63804996D02*
X54646796Y-63733568D01*
X54646796Y-63733568D02*
X54718224Y-63662139D01*
X54718224Y-63662139D02*
X54718224Y-63804996D01*
X56146796Y-62304996D02*
X55432510Y-62304996D01*
X55432510Y-62304996D02*
X55361082Y-63019282D01*
X55361082Y-63019282D02*
X55432510Y-62947853D01*
X55432510Y-62947853D02*
X55575368Y-62876425D01*
X55575368Y-62876425D02*
X55932510Y-62876425D01*
X55932510Y-62876425D02*
X56075368Y-62947853D01*
X56075368Y-62947853D02*
X56146796Y-63019282D01*
X56146796Y-63019282D02*
X56218225Y-63162139D01*
X56218225Y-63162139D02*
X56218225Y-63519282D01*
X56218225Y-63519282D02*
X56146796Y-63662139D01*
X56146796Y-63662139D02*
X56075368Y-63733568D01*
X56075368Y-63733568D02*
X55932510Y-63804996D01*
X55932510Y-63804996D02*
X55575368Y-63804996D01*
X55575368Y-63804996D02*
X55432510Y-63733568D01*
X55432510Y-63733568D02*
X55361082Y-63662139D01*
X40432510Y-65648484D02*
X41575368Y-65648484D01*
X43361082Y-65791341D02*
X44075368Y-65791341D01*
X43218225Y-66219912D02*
X43718225Y-64719912D01*
X43718225Y-64719912D02*
X44218225Y-66219912D01*
X44718224Y-65219912D02*
X44718224Y-66219912D01*
X44718224Y-65362769D02*
X44789653Y-65291341D01*
X44789653Y-65291341D02*
X44932510Y-65219912D01*
X44932510Y-65219912D02*
X45146796Y-65219912D01*
X45146796Y-65219912D02*
X45289653Y-65291341D01*
X45289653Y-65291341D02*
X45361082Y-65434198D01*
X45361082Y-65434198D02*
X45361082Y-66219912D01*
X46718225Y-66148484D02*
X46575367Y-66219912D01*
X46575367Y-66219912D02*
X46289653Y-66219912D01*
X46289653Y-66219912D02*
X46146796Y-66148484D01*
X46146796Y-66148484D02*
X46075367Y-66077055D01*
X46075367Y-66077055D02*
X46003939Y-65934198D01*
X46003939Y-65934198D02*
X46003939Y-65505626D01*
X46003939Y-65505626D02*
X46075367Y-65362769D01*
X46075367Y-65362769D02*
X46146796Y-65291341D01*
X46146796Y-65291341D02*
X46289653Y-65219912D01*
X46289653Y-65219912D02*
X46575367Y-65219912D01*
X46575367Y-65219912D02*
X46718225Y-65291341D01*
X47361081Y-66219912D02*
X47361081Y-64719912D01*
X48003939Y-66219912D02*
X48003939Y-65434198D01*
X48003939Y-65434198D02*
X47932510Y-65291341D01*
X47932510Y-65291341D02*
X47789653Y-65219912D01*
X47789653Y-65219912D02*
X47575367Y-65219912D01*
X47575367Y-65219912D02*
X47432510Y-65291341D01*
X47432510Y-65291341D02*
X47361081Y-65362769D01*
X48932510Y-66219912D02*
X48789653Y-66148484D01*
X48789653Y-66148484D02*
X48718224Y-66077055D01*
X48718224Y-66077055D02*
X48646796Y-65934198D01*
X48646796Y-65934198D02*
X48646796Y-65505626D01*
X48646796Y-65505626D02*
X48718224Y-65362769D01*
X48718224Y-65362769D02*
X48789653Y-65291341D01*
X48789653Y-65291341D02*
X48932510Y-65219912D01*
X48932510Y-65219912D02*
X49146796Y-65219912D01*
X49146796Y-65219912D02*
X49289653Y-65291341D01*
X49289653Y-65291341D02*
X49361082Y-65362769D01*
X49361082Y-65362769D02*
X49432510Y-65505626D01*
X49432510Y-65505626D02*
X49432510Y-65934198D01*
X49432510Y-65934198D02*
X49361082Y-66077055D01*
X49361082Y-66077055D02*
X49289653Y-66148484D01*
X49289653Y-66148484D02*
X49146796Y-66219912D01*
X49146796Y-66219912D02*
X48932510Y-66219912D01*
X51218224Y-66219912D02*
X51218224Y-65219912D01*
X51218224Y-65362769D02*
X51289653Y-65291341D01*
X51289653Y-65291341D02*
X51432510Y-65219912D01*
X51432510Y-65219912D02*
X51646796Y-65219912D01*
X51646796Y-65219912D02*
X51789653Y-65291341D01*
X51789653Y-65291341D02*
X51861082Y-65434198D01*
X51861082Y-65434198D02*
X51861082Y-66219912D01*
X51861082Y-65434198D02*
X51932510Y-65291341D01*
X51932510Y-65291341D02*
X52075367Y-65219912D01*
X52075367Y-65219912D02*
X52289653Y-65219912D01*
X52289653Y-65219912D02*
X52432510Y-65291341D01*
X52432510Y-65291341D02*
X52503939Y-65434198D01*
X52503939Y-65434198D02*
X52503939Y-66219912D01*
X53218224Y-66219912D02*
X53218224Y-65219912D01*
X53361082Y-64648484D02*
X53146796Y-64862769D01*
X53932510Y-65219912D02*
X53932510Y-66219912D01*
X53932510Y-65362769D02*
X54003939Y-65291341D01*
X54003939Y-65291341D02*
X54146796Y-65219912D01*
X54146796Y-65219912D02*
X54361082Y-65219912D01*
X54361082Y-65219912D02*
X54503939Y-65291341D01*
X54503939Y-65291341D02*
X54575368Y-65434198D01*
X54575368Y-65434198D02*
X54575368Y-66219912D01*
X55289653Y-66219912D02*
X55289653Y-65219912D01*
X55289653Y-64719912D02*
X55218225Y-64791341D01*
X55218225Y-64791341D02*
X55289653Y-64862769D01*
X55289653Y-64862769D02*
X55361082Y-64791341D01*
X55361082Y-64791341D02*
X55289653Y-64719912D01*
X55289653Y-64719912D02*
X55289653Y-64862769D01*
X56003939Y-66219912D02*
X56003939Y-65219912D01*
X56003939Y-65362769D02*
X56075368Y-65291341D01*
X56075368Y-65291341D02*
X56218225Y-65219912D01*
X56218225Y-65219912D02*
X56432511Y-65219912D01*
X56432511Y-65219912D02*
X56575368Y-65291341D01*
X56575368Y-65291341D02*
X56646797Y-65434198D01*
X56646797Y-65434198D02*
X56646797Y-66219912D01*
X56646797Y-65434198D02*
X56718225Y-65291341D01*
X56718225Y-65291341D02*
X56861082Y-65219912D01*
X56861082Y-65219912D02*
X57075368Y-65219912D01*
X57075368Y-65219912D02*
X57218225Y-65291341D01*
X57218225Y-65291341D02*
X57289654Y-65434198D01*
X57289654Y-65434198D02*
X57289654Y-66219912D01*
X58218225Y-66219912D02*
X58075368Y-66148484D01*
X58075368Y-66148484D02*
X58003939Y-66077055D01*
X58003939Y-66077055D02*
X57932511Y-65934198D01*
X57932511Y-65934198D02*
X57932511Y-65505626D01*
X57932511Y-65505626D02*
X58003939Y-65362769D01*
X58003939Y-65362769D02*
X58075368Y-65291341D01*
X58075368Y-65291341D02*
X58218225Y-65219912D01*
X58218225Y-65219912D02*
X58432511Y-65219912D01*
X58432511Y-65219912D02*
X58575368Y-65291341D01*
X58575368Y-65291341D02*
X58646797Y-65362769D01*
X58646797Y-65362769D02*
X58718225Y-65505626D01*
X58718225Y-65505626D02*
X58718225Y-65934198D01*
X58718225Y-65934198D02*
X58646797Y-66077055D01*
X58646797Y-66077055D02*
X58575368Y-66148484D01*
X58575368Y-66148484D02*
X58432511Y-66219912D01*
X58432511Y-66219912D02*
X58218225Y-66219912D01*
X59361082Y-66077055D02*
X59432511Y-66148484D01*
X59432511Y-66148484D02*
X59361082Y-66219912D01*
X59361082Y-66219912D02*
X59289654Y-66148484D01*
X59289654Y-66148484D02*
X59361082Y-66077055D01*
X59361082Y-66077055D02*
X59361082Y-66219912D01*
X59361082Y-65291341D02*
X59432511Y-65362769D01*
X59432511Y-65362769D02*
X59361082Y-65434198D01*
X59361082Y-65434198D02*
X59289654Y-65362769D01*
X59289654Y-65362769D02*
X59361082Y-65291341D01*
X59361082Y-65291341D02*
X59361082Y-65434198D01*
X61503940Y-64719912D02*
X61646797Y-64719912D01*
X61646797Y-64719912D02*
X61789654Y-64791341D01*
X61789654Y-64791341D02*
X61861083Y-64862769D01*
X61861083Y-64862769D02*
X61932511Y-65005626D01*
X61932511Y-65005626D02*
X62003940Y-65291341D01*
X62003940Y-65291341D02*
X62003940Y-65648484D01*
X62003940Y-65648484D02*
X61932511Y-65934198D01*
X61932511Y-65934198D02*
X61861083Y-66077055D01*
X61861083Y-66077055D02*
X61789654Y-66148484D01*
X61789654Y-66148484D02*
X61646797Y-66219912D01*
X61646797Y-66219912D02*
X61503940Y-66219912D01*
X61503940Y-66219912D02*
X61361083Y-66148484D01*
X61361083Y-66148484D02*
X61289654Y-66077055D01*
X61289654Y-66077055D02*
X61218225Y-65934198D01*
X61218225Y-65934198D02*
X61146797Y-65648484D01*
X61146797Y-65648484D02*
X61146797Y-65291341D01*
X61146797Y-65291341D02*
X61218225Y-65005626D01*
X61218225Y-65005626D02*
X61289654Y-64862769D01*
X61289654Y-64862769D02*
X61361083Y-64791341D01*
X61361083Y-64791341D02*
X61503940Y-64719912D01*
X62646796Y-66077055D02*
X62718225Y-66148484D01*
X62718225Y-66148484D02*
X62646796Y-66219912D01*
X62646796Y-66219912D02*
X62575368Y-66148484D01*
X62575368Y-66148484D02*
X62646796Y-66077055D01*
X62646796Y-66077055D02*
X62646796Y-66219912D01*
X63289654Y-64862769D02*
X63361082Y-64791341D01*
X63361082Y-64791341D02*
X63503940Y-64719912D01*
X63503940Y-64719912D02*
X63861082Y-64719912D01*
X63861082Y-64719912D02*
X64003940Y-64791341D01*
X64003940Y-64791341D02*
X64075368Y-64862769D01*
X64075368Y-64862769D02*
X64146797Y-65005626D01*
X64146797Y-65005626D02*
X64146797Y-65148484D01*
X64146797Y-65148484D02*
X64075368Y-65362769D01*
X64075368Y-65362769D02*
X63218225Y-66219912D01*
X63218225Y-66219912D02*
X64146797Y-66219912D01*
X65503939Y-64719912D02*
X64789653Y-64719912D01*
X64789653Y-64719912D02*
X64718225Y-65434198D01*
X64718225Y-65434198D02*
X64789653Y-65362769D01*
X64789653Y-65362769D02*
X64932511Y-65291341D01*
X64932511Y-65291341D02*
X65289653Y-65291341D01*
X65289653Y-65291341D02*
X65432511Y-65362769D01*
X65432511Y-65362769D02*
X65503939Y-65434198D01*
X65503939Y-65434198D02*
X65575368Y-65577055D01*
X65575368Y-65577055D02*
X65575368Y-65934198D01*
X65575368Y-65934198D02*
X65503939Y-66077055D01*
X65503939Y-66077055D02*
X65432511Y-66148484D01*
X65432511Y-66148484D02*
X65289653Y-66219912D01*
X65289653Y-66219912D02*
X64932511Y-66219912D01*
X64932511Y-66219912D02*
X64789653Y-66148484D01*
X64789653Y-66148484D02*
X64718225Y-66077055D01*
X40432510Y-68063400D02*
X41575368Y-68063400D01*
X44289653Y-68634828D02*
X43789653Y-67920542D01*
X43432510Y-68634828D02*
X43432510Y-67134828D01*
X43432510Y-67134828D02*
X44003939Y-67134828D01*
X44003939Y-67134828D02*
X44146796Y-67206257D01*
X44146796Y-67206257D02*
X44218225Y-67277685D01*
X44218225Y-67277685D02*
X44289653Y-67420542D01*
X44289653Y-67420542D02*
X44289653Y-67634828D01*
X44289653Y-67634828D02*
X44218225Y-67777685D01*
X44218225Y-67777685D02*
X44146796Y-67849114D01*
X44146796Y-67849114D02*
X44003939Y-67920542D01*
X44003939Y-67920542D02*
X43432510Y-67920542D01*
X45503939Y-68563400D02*
X45361082Y-68634828D01*
X45361082Y-68634828D02*
X45075368Y-68634828D01*
X45075368Y-68634828D02*
X44932510Y-68563400D01*
X44932510Y-68563400D02*
X44861082Y-68420542D01*
X44861082Y-68420542D02*
X44861082Y-67849114D01*
X44861082Y-67849114D02*
X44932510Y-67706257D01*
X44932510Y-67706257D02*
X45075368Y-67634828D01*
X45075368Y-67634828D02*
X45361082Y-67634828D01*
X45361082Y-67634828D02*
X45503939Y-67706257D01*
X45503939Y-67706257D02*
X45575368Y-67849114D01*
X45575368Y-67849114D02*
X45575368Y-67991971D01*
X45575368Y-67991971D02*
X44861082Y-68134828D01*
X46432510Y-68634828D02*
X46289653Y-68563400D01*
X46289653Y-68563400D02*
X46218224Y-68420542D01*
X46218224Y-68420542D02*
X46218224Y-67134828D01*
X47218224Y-68634828D02*
X47075367Y-68563400D01*
X47075367Y-68563400D02*
X47003938Y-68420542D01*
X47003938Y-68420542D02*
X47003938Y-67134828D01*
X48361081Y-68563400D02*
X48218224Y-68634828D01*
X48218224Y-68634828D02*
X47932510Y-68634828D01*
X47932510Y-68634828D02*
X47789652Y-68563400D01*
X47789652Y-68563400D02*
X47718224Y-68420542D01*
X47718224Y-68420542D02*
X47718224Y-67849114D01*
X47718224Y-67849114D02*
X47789652Y-67706257D01*
X47789652Y-67706257D02*
X47932510Y-67634828D01*
X47932510Y-67634828D02*
X48218224Y-67634828D01*
X48218224Y-67634828D02*
X48361081Y-67706257D01*
X48361081Y-67706257D02*
X48432510Y-67849114D01*
X48432510Y-67849114D02*
X48432510Y-67991971D01*
X48432510Y-67991971D02*
X47718224Y-68134828D01*
X49075366Y-67634828D02*
X49075366Y-68634828D01*
X49075366Y-67777685D02*
X49146795Y-67706257D01*
X49146795Y-67706257D02*
X49289652Y-67634828D01*
X49289652Y-67634828D02*
X49503938Y-67634828D01*
X49503938Y-67634828D02*
X49646795Y-67706257D01*
X49646795Y-67706257D02*
X49718224Y-67849114D01*
X49718224Y-67849114D02*
X49718224Y-68634828D01*
X50646795Y-68634828D02*
X50503938Y-68563400D01*
X50503938Y-68563400D02*
X50432509Y-68491971D01*
X50432509Y-68491971D02*
X50361081Y-68349114D01*
X50361081Y-68349114D02*
X50361081Y-67920542D01*
X50361081Y-67920542D02*
X50432509Y-67777685D01*
X50432509Y-67777685D02*
X50503938Y-67706257D01*
X50503938Y-67706257D02*
X50646795Y-67634828D01*
X50646795Y-67634828D02*
X50861081Y-67634828D01*
X50861081Y-67634828D02*
X51003938Y-67706257D01*
X51003938Y-67706257D02*
X51075367Y-67777685D01*
X51075367Y-67777685D02*
X51146795Y-67920542D01*
X51146795Y-67920542D02*
X51146795Y-68349114D01*
X51146795Y-68349114D02*
X51075367Y-68491971D01*
X51075367Y-68491971D02*
X51003938Y-68563400D01*
X51003938Y-68563400D02*
X50861081Y-68634828D01*
X50861081Y-68634828D02*
X50646795Y-68634828D01*
X52861081Y-68563400D02*
X53003938Y-68634828D01*
X53003938Y-68634828D02*
X53289652Y-68634828D01*
X53289652Y-68634828D02*
X53432509Y-68563400D01*
X53432509Y-68563400D02*
X53503938Y-68420542D01*
X53503938Y-68420542D02*
X53503938Y-68349114D01*
X53503938Y-68349114D02*
X53432509Y-68206257D01*
X53432509Y-68206257D02*
X53289652Y-68134828D01*
X53289652Y-68134828D02*
X53075367Y-68134828D01*
X53075367Y-68134828D02*
X52932509Y-68063400D01*
X52932509Y-68063400D02*
X52861081Y-67920542D01*
X52861081Y-67920542D02*
X52861081Y-67849114D01*
X52861081Y-67849114D02*
X52932509Y-67706257D01*
X52932509Y-67706257D02*
X53075367Y-67634828D01*
X53075367Y-67634828D02*
X53289652Y-67634828D01*
X53289652Y-67634828D02*
X53432509Y-67706257D01*
X54361081Y-68634828D02*
X54218224Y-68563400D01*
X54218224Y-68563400D02*
X54146795Y-68491971D01*
X54146795Y-68491971D02*
X54075367Y-68349114D01*
X54075367Y-68349114D02*
X54075367Y-67920542D01*
X54075367Y-67920542D02*
X54146795Y-67777685D01*
X54146795Y-67777685D02*
X54218224Y-67706257D01*
X54218224Y-67706257D02*
X54361081Y-67634828D01*
X54361081Y-67634828D02*
X54575367Y-67634828D01*
X54575367Y-67634828D02*
X54718224Y-67706257D01*
X54718224Y-67706257D02*
X54789653Y-67777685D01*
X54789653Y-67777685D02*
X54861081Y-67920542D01*
X54861081Y-67920542D02*
X54861081Y-68349114D01*
X54861081Y-68349114D02*
X54789653Y-68491971D01*
X54789653Y-68491971D02*
X54718224Y-68563400D01*
X54718224Y-68563400D02*
X54575367Y-68634828D01*
X54575367Y-68634828D02*
X54361081Y-68634828D01*
X54646795Y-67063400D02*
X54432510Y-67277685D01*
X55718224Y-68634828D02*
X55575367Y-68563400D01*
X55575367Y-68563400D02*
X55503938Y-68420542D01*
X55503938Y-68420542D02*
X55503938Y-67134828D01*
X56289652Y-68634828D02*
X56289652Y-67634828D01*
X56289652Y-67134828D02*
X56218224Y-67206257D01*
X56218224Y-67206257D02*
X56289652Y-67277685D01*
X56289652Y-67277685D02*
X56361081Y-67206257D01*
X56361081Y-67206257D02*
X56289652Y-67134828D01*
X56289652Y-67134828D02*
X56289652Y-67277685D01*
X57646796Y-68634828D02*
X57646796Y-67134828D01*
X57646796Y-68563400D02*
X57503938Y-68634828D01*
X57503938Y-68634828D02*
X57218224Y-68634828D01*
X57218224Y-68634828D02*
X57075367Y-68563400D01*
X57075367Y-68563400D02*
X57003938Y-68491971D01*
X57003938Y-68491971D02*
X56932510Y-68349114D01*
X56932510Y-68349114D02*
X56932510Y-67920542D01*
X56932510Y-67920542D02*
X57003938Y-67777685D01*
X57003938Y-67777685D02*
X57075367Y-67706257D01*
X57075367Y-67706257D02*
X57218224Y-67634828D01*
X57218224Y-67634828D02*
X57503938Y-67634828D01*
X57503938Y-67634828D02*
X57646796Y-67706257D01*
X58575367Y-68634828D02*
X58432510Y-68563400D01*
X58432510Y-68563400D02*
X58361081Y-68491971D01*
X58361081Y-68491971D02*
X58289653Y-68349114D01*
X58289653Y-68349114D02*
X58289653Y-67920542D01*
X58289653Y-67920542D02*
X58361081Y-67777685D01*
X58361081Y-67777685D02*
X58432510Y-67706257D01*
X58432510Y-67706257D02*
X58575367Y-67634828D01*
X58575367Y-67634828D02*
X58789653Y-67634828D01*
X58789653Y-67634828D02*
X58932510Y-67706257D01*
X58932510Y-67706257D02*
X59003939Y-67777685D01*
X59003939Y-67777685D02*
X59075367Y-67920542D01*
X59075367Y-67920542D02*
X59075367Y-68349114D01*
X59075367Y-68349114D02*
X59003939Y-68491971D01*
X59003939Y-68491971D02*
X58932510Y-68563400D01*
X58932510Y-68563400D02*
X58789653Y-68634828D01*
X58789653Y-68634828D02*
X58575367Y-68634828D01*
X39964225Y-54688828D02*
X40821368Y-54688828D01*
X40392796Y-56188828D02*
X40392796Y-54688828D01*
X41964225Y-56188828D02*
X41964225Y-55403114D01*
X41964225Y-55403114D02*
X41892796Y-55260257D01*
X41892796Y-55260257D02*
X41749939Y-55188828D01*
X41749939Y-55188828D02*
X41464225Y-55188828D01*
X41464225Y-55188828D02*
X41321367Y-55260257D01*
X41964225Y-56117400D02*
X41821367Y-56188828D01*
X41821367Y-56188828D02*
X41464225Y-56188828D01*
X41464225Y-56188828D02*
X41321367Y-56117400D01*
X41321367Y-56117400D02*
X41249939Y-55974542D01*
X41249939Y-55974542D02*
X41249939Y-55831685D01*
X41249939Y-55831685D02*
X41321367Y-55688828D01*
X41321367Y-55688828D02*
X41464225Y-55617400D01*
X41464225Y-55617400D02*
X41821367Y-55617400D01*
X41821367Y-55617400D02*
X41964225Y-55545971D01*
X42678510Y-56188828D02*
X42678510Y-55188828D01*
X42678510Y-55331685D02*
X42749939Y-55260257D01*
X42749939Y-55260257D02*
X42892796Y-55188828D01*
X42892796Y-55188828D02*
X43107082Y-55188828D01*
X43107082Y-55188828D02*
X43249939Y-55260257D01*
X43249939Y-55260257D02*
X43321368Y-55403114D01*
X43321368Y-55403114D02*
X43321368Y-56188828D01*
X43321368Y-55403114D02*
X43392796Y-55260257D01*
X43392796Y-55260257D02*
X43535653Y-55188828D01*
X43535653Y-55188828D02*
X43749939Y-55188828D01*
X43749939Y-55188828D02*
X43892796Y-55260257D01*
X43892796Y-55260257D02*
X43964225Y-55403114D01*
X43964225Y-55403114D02*
X43964225Y-56188828D01*
X45821367Y-55188828D02*
X45821367Y-56688828D01*
X45821367Y-55260257D02*
X45964225Y-55188828D01*
X45964225Y-55188828D02*
X46249939Y-55188828D01*
X46249939Y-55188828D02*
X46392796Y-55260257D01*
X46392796Y-55260257D02*
X46464225Y-55331685D01*
X46464225Y-55331685D02*
X46535653Y-55474542D01*
X46535653Y-55474542D02*
X46535653Y-55903114D01*
X46535653Y-55903114D02*
X46464225Y-56045971D01*
X46464225Y-56045971D02*
X46392796Y-56117400D01*
X46392796Y-56117400D02*
X46249939Y-56188828D01*
X46249939Y-56188828D02*
X45964225Y-56188828D01*
X45964225Y-56188828D02*
X45821367Y-56117400D01*
X47392796Y-56188828D02*
X47249939Y-56117400D01*
X47249939Y-56117400D02*
X47178510Y-55974542D01*
X47178510Y-55974542D02*
X47178510Y-54688828D01*
X48607082Y-56188828D02*
X48607082Y-55403114D01*
X48607082Y-55403114D02*
X48535653Y-55260257D01*
X48535653Y-55260257D02*
X48392796Y-55188828D01*
X48392796Y-55188828D02*
X48107082Y-55188828D01*
X48107082Y-55188828D02*
X47964224Y-55260257D01*
X48607082Y-56117400D02*
X48464224Y-56188828D01*
X48464224Y-56188828D02*
X48107082Y-56188828D01*
X48107082Y-56188828D02*
X47964224Y-56117400D01*
X47964224Y-56117400D02*
X47892796Y-55974542D01*
X47892796Y-55974542D02*
X47892796Y-55831685D01*
X47892796Y-55831685D02*
X47964224Y-55688828D01*
X47964224Y-55688828D02*
X48107082Y-55617400D01*
X48107082Y-55617400D02*
X48464224Y-55617400D01*
X48464224Y-55617400D02*
X48607082Y-55545971D01*
X49964225Y-56117400D02*
X49821367Y-56188828D01*
X49821367Y-56188828D02*
X49535653Y-56188828D01*
X49535653Y-56188828D02*
X49392796Y-56117400D01*
X49392796Y-56117400D02*
X49321367Y-56045971D01*
X49321367Y-56045971D02*
X49249939Y-55903114D01*
X49249939Y-55903114D02*
X49249939Y-55474542D01*
X49249939Y-55474542D02*
X49321367Y-55331685D01*
X49321367Y-55331685D02*
X49392796Y-55260257D01*
X49392796Y-55260257D02*
X49535653Y-55188828D01*
X49535653Y-55188828D02*
X49821367Y-55188828D01*
X49821367Y-55188828D02*
X49964225Y-55260257D01*
X51249939Y-56188828D02*
X51249939Y-55403114D01*
X51249939Y-55403114D02*
X51178510Y-55260257D01*
X51178510Y-55260257D02*
X51035653Y-55188828D01*
X51035653Y-55188828D02*
X50749939Y-55188828D01*
X50749939Y-55188828D02*
X50607081Y-55260257D01*
X51249939Y-56117400D02*
X51107081Y-56188828D01*
X51107081Y-56188828D02*
X50749939Y-56188828D01*
X50749939Y-56188828D02*
X50607081Y-56117400D01*
X50607081Y-56117400D02*
X50535653Y-55974542D01*
X50535653Y-55974542D02*
X50535653Y-55831685D01*
X50535653Y-55831685D02*
X50607081Y-55688828D01*
X50607081Y-55688828D02*
X50749939Y-55617400D01*
X50749939Y-55617400D02*
X51107081Y-55617400D01*
X51107081Y-55617400D02*
X51249939Y-55545971D01*
X51964224Y-56045971D02*
X52035653Y-56117400D01*
X52035653Y-56117400D02*
X51964224Y-56188828D01*
X51964224Y-56188828D02*
X51892796Y-56117400D01*
X51892796Y-56117400D02*
X51964224Y-56045971D01*
X51964224Y-56045971D02*
X51964224Y-56188828D01*
X51964224Y-55260257D02*
X52035653Y-55331685D01*
X52035653Y-55331685D02*
X51964224Y-55403114D01*
X51964224Y-55403114D02*
X51892796Y-55331685D01*
X51892796Y-55331685D02*
X51964224Y-55260257D01*
X51964224Y-55260257D02*
X51964224Y-55403114D01*
X54607082Y-56188828D02*
X53749939Y-56188828D01*
X54178510Y-56188828D02*
X54178510Y-54688828D01*
X54178510Y-54688828D02*
X54035653Y-54903114D01*
X54035653Y-54903114D02*
X53892796Y-55045971D01*
X53892796Y-55045971D02*
X53749939Y-55117400D01*
X55892796Y-55188828D02*
X55892796Y-56188828D01*
X55535653Y-54617400D02*
X55178510Y-55688828D01*
X55178510Y-55688828D02*
X56107081Y-55688828D01*
X56678509Y-56045971D02*
X56749938Y-56117400D01*
X56749938Y-56117400D02*
X56678509Y-56188828D01*
X56678509Y-56188828D02*
X56607081Y-56117400D01*
X56607081Y-56117400D02*
X56678509Y-56045971D01*
X56678509Y-56045971D02*
X56678509Y-56188828D01*
X57321367Y-54831685D02*
X57392795Y-54760257D01*
X57392795Y-54760257D02*
X57535653Y-54688828D01*
X57535653Y-54688828D02*
X57892795Y-54688828D01*
X57892795Y-54688828D02*
X58035653Y-54760257D01*
X58035653Y-54760257D02*
X58107081Y-54831685D01*
X58107081Y-54831685D02*
X58178510Y-54974542D01*
X58178510Y-54974542D02*
X58178510Y-55117400D01*
X58178510Y-55117400D02*
X58107081Y-55331685D01*
X58107081Y-55331685D02*
X57249938Y-56188828D01*
X57249938Y-56188828D02*
X58178510Y-56188828D01*
X59821366Y-56188828D02*
X60607081Y-55188828D01*
X59821366Y-55188828D02*
X60607081Y-56188828D01*
X62178509Y-54688828D02*
X63107081Y-54688828D01*
X63107081Y-54688828D02*
X62607081Y-55260257D01*
X62607081Y-55260257D02*
X62821366Y-55260257D01*
X62821366Y-55260257D02*
X62964224Y-55331685D01*
X62964224Y-55331685D02*
X63035652Y-55403114D01*
X63035652Y-55403114D02*
X63107081Y-55545971D01*
X63107081Y-55545971D02*
X63107081Y-55903114D01*
X63107081Y-55903114D02*
X63035652Y-56045971D01*
X63035652Y-56045971D02*
X62964224Y-56117400D01*
X62964224Y-56117400D02*
X62821366Y-56188828D01*
X62821366Y-56188828D02*
X62392795Y-56188828D01*
X62392795Y-56188828D02*
X62249938Y-56117400D01*
X62249938Y-56117400D02*
X62178509Y-56045971D01*
X63678509Y-54831685D02*
X63749937Y-54760257D01*
X63749937Y-54760257D02*
X63892795Y-54688828D01*
X63892795Y-54688828D02*
X64249937Y-54688828D01*
X64249937Y-54688828D02*
X64392795Y-54760257D01*
X64392795Y-54760257D02*
X64464223Y-54831685D01*
X64464223Y-54831685D02*
X64535652Y-54974542D01*
X64535652Y-54974542D02*
X64535652Y-55117400D01*
X64535652Y-55117400D02*
X64464223Y-55331685D01*
X64464223Y-55331685D02*
X63607080Y-56188828D01*
X63607080Y-56188828D02*
X64535652Y-56188828D01*
X65178508Y-56045971D02*
X65249937Y-56117400D01*
X65249937Y-56117400D02*
X65178508Y-56188828D01*
X65178508Y-56188828D02*
X65107080Y-56117400D01*
X65107080Y-56117400D02*
X65178508Y-56045971D01*
X65178508Y-56045971D02*
X65178508Y-56188828D01*
X65749937Y-54688828D02*
X66678509Y-54688828D01*
X66678509Y-54688828D02*
X66178509Y-55260257D01*
X66178509Y-55260257D02*
X66392794Y-55260257D01*
X66392794Y-55260257D02*
X66535652Y-55331685D01*
X66535652Y-55331685D02*
X66607080Y-55403114D01*
X66607080Y-55403114D02*
X66678509Y-55545971D01*
X66678509Y-55545971D02*
X66678509Y-55903114D01*
X66678509Y-55903114D02*
X66607080Y-56045971D01*
X66607080Y-56045971D02*
X66535652Y-56117400D01*
X66535652Y-56117400D02*
X66392794Y-56188828D01*
X66392794Y-56188828D02*
X65964223Y-56188828D01*
X65964223Y-56188828D02*
X65821366Y-56117400D01*
X65821366Y-56117400D02*
X65749937Y-56045971D01*
X68464222Y-56188828D02*
X68464222Y-55188828D01*
X68464222Y-55331685D02*
X68535651Y-55260257D01*
X68535651Y-55260257D02*
X68678508Y-55188828D01*
X68678508Y-55188828D02*
X68892794Y-55188828D01*
X68892794Y-55188828D02*
X69035651Y-55260257D01*
X69035651Y-55260257D02*
X69107080Y-55403114D01*
X69107080Y-55403114D02*
X69107080Y-56188828D01*
X69107080Y-55403114D02*
X69178508Y-55260257D01*
X69178508Y-55260257D02*
X69321365Y-55188828D01*
X69321365Y-55188828D02*
X69535651Y-55188828D01*
X69535651Y-55188828D02*
X69678508Y-55260257D01*
X69678508Y-55260257D02*
X69749937Y-55403114D01*
X69749937Y-55403114D02*
X69749937Y-56188828D01*
X70464222Y-56188828D02*
X70464222Y-55188828D01*
X70464222Y-55331685D02*
X70535651Y-55260257D01*
X70535651Y-55260257D02*
X70678508Y-55188828D01*
X70678508Y-55188828D02*
X70892794Y-55188828D01*
X70892794Y-55188828D02*
X71035651Y-55260257D01*
X71035651Y-55260257D02*
X71107080Y-55403114D01*
X71107080Y-55403114D02*
X71107080Y-56188828D01*
X71107080Y-55403114D02*
X71178508Y-55260257D01*
X71178508Y-55260257D02*
X71321365Y-55188828D01*
X71321365Y-55188828D02*
X71535651Y-55188828D01*
X71535651Y-55188828D02*
X71678508Y-55260257D01*
X71678508Y-55260257D02*
X71749937Y-55403114D01*
X71749937Y-55403114D02*
X71749937Y-56188828D01*
X40432510Y-51108828D02*
X40432510Y-49608828D01*
X40432510Y-49608828D02*
X41003939Y-49608828D01*
X41003939Y-49608828D02*
X41146796Y-49680257D01*
X41146796Y-49680257D02*
X41218225Y-49751685D01*
X41218225Y-49751685D02*
X41289653Y-49894542D01*
X41289653Y-49894542D02*
X41289653Y-50108828D01*
X41289653Y-50108828D02*
X41218225Y-50251685D01*
X41218225Y-50251685D02*
X41146796Y-50323114D01*
X41146796Y-50323114D02*
X41003939Y-50394542D01*
X41003939Y-50394542D02*
X40432510Y-50394542D01*
X41932510Y-51108828D02*
X41932510Y-50108828D01*
X41932510Y-49608828D02*
X41861082Y-49680257D01*
X41861082Y-49680257D02*
X41932510Y-49751685D01*
X41932510Y-49751685D02*
X42003939Y-49680257D01*
X42003939Y-49680257D02*
X41932510Y-49608828D01*
X41932510Y-49608828D02*
X41932510Y-49751685D01*
X42575368Y-51037400D02*
X42718225Y-51108828D01*
X42718225Y-51108828D02*
X43003939Y-51108828D01*
X43003939Y-51108828D02*
X43146796Y-51037400D01*
X43146796Y-51037400D02*
X43218225Y-50894542D01*
X43218225Y-50894542D02*
X43218225Y-50823114D01*
X43218225Y-50823114D02*
X43146796Y-50680257D01*
X43146796Y-50680257D02*
X43003939Y-50608828D01*
X43003939Y-50608828D02*
X42789654Y-50608828D01*
X42789654Y-50608828D02*
X42646796Y-50537400D01*
X42646796Y-50537400D02*
X42575368Y-50394542D01*
X42575368Y-50394542D02*
X42575368Y-50323114D01*
X42575368Y-50323114D02*
X42646796Y-50180257D01*
X42646796Y-50180257D02*
X42789654Y-50108828D01*
X42789654Y-50108828D02*
X43003939Y-50108828D01*
X43003939Y-50108828D02*
X43146796Y-50180257D01*
X43646797Y-50108828D02*
X44218225Y-50108828D01*
X43861082Y-49608828D02*
X43861082Y-50894542D01*
X43861082Y-50894542D02*
X43932511Y-51037400D01*
X43932511Y-51037400D02*
X44075368Y-51108828D01*
X44075368Y-51108828D02*
X44218225Y-51108828D01*
X45361083Y-51108828D02*
X45361083Y-50323114D01*
X45361083Y-50323114D02*
X45289654Y-50180257D01*
X45289654Y-50180257D02*
X45146797Y-50108828D01*
X45146797Y-50108828D02*
X44861083Y-50108828D01*
X44861083Y-50108828D02*
X44718225Y-50180257D01*
X45361083Y-51037400D02*
X45218225Y-51108828D01*
X45218225Y-51108828D02*
X44861083Y-51108828D01*
X44861083Y-51108828D02*
X44718225Y-51037400D01*
X44718225Y-51037400D02*
X44646797Y-50894542D01*
X44646797Y-50894542D02*
X44646797Y-50751685D01*
X44646797Y-50751685D02*
X44718225Y-50608828D01*
X44718225Y-50608828D02*
X44861083Y-50537400D01*
X44861083Y-50537400D02*
X45218225Y-50537400D01*
X45218225Y-50537400D02*
X45361083Y-50465971D01*
X46003940Y-51037400D02*
X46146797Y-51108828D01*
X46146797Y-51108828D02*
X46432511Y-51108828D01*
X46432511Y-51108828D02*
X46575368Y-51037400D01*
X46575368Y-51037400D02*
X46646797Y-50894542D01*
X46646797Y-50894542D02*
X46646797Y-50823114D01*
X46646797Y-50823114D02*
X46575368Y-50680257D01*
X46575368Y-50680257D02*
X46432511Y-50608828D01*
X46432511Y-50608828D02*
X46218226Y-50608828D01*
X46218226Y-50608828D02*
X46075368Y-50537400D01*
X46075368Y-50537400D02*
X46003940Y-50394542D01*
X46003940Y-50394542D02*
X46003940Y-50323114D01*
X46003940Y-50323114D02*
X46075368Y-50180257D01*
X46075368Y-50180257D02*
X46218226Y-50108828D01*
X46218226Y-50108828D02*
X46432511Y-50108828D01*
X46432511Y-50108828D02*
X46575368Y-50180257D01*
X47289654Y-50965971D02*
X47361083Y-51037400D01*
X47361083Y-51037400D02*
X47289654Y-51108828D01*
X47289654Y-51108828D02*
X47218226Y-51037400D01*
X47218226Y-51037400D02*
X47289654Y-50965971D01*
X47289654Y-50965971D02*
X47289654Y-51108828D01*
X47289654Y-50180257D02*
X47361083Y-50251685D01*
X47361083Y-50251685D02*
X47289654Y-50323114D01*
X47289654Y-50323114D02*
X47218226Y-50251685D01*
X47218226Y-50251685D02*
X47289654Y-50180257D01*
X47289654Y-50180257D02*
X47289654Y-50323114D01*
X49432512Y-49608828D02*
X49575369Y-49608828D01*
X49575369Y-49608828D02*
X49718226Y-49680257D01*
X49718226Y-49680257D02*
X49789655Y-49751685D01*
X49789655Y-49751685D02*
X49861083Y-49894542D01*
X49861083Y-49894542D02*
X49932512Y-50180257D01*
X49932512Y-50180257D02*
X49932512Y-50537400D01*
X49932512Y-50537400D02*
X49861083Y-50823114D01*
X49861083Y-50823114D02*
X49789655Y-50965971D01*
X49789655Y-50965971D02*
X49718226Y-51037400D01*
X49718226Y-51037400D02*
X49575369Y-51108828D01*
X49575369Y-51108828D02*
X49432512Y-51108828D01*
X49432512Y-51108828D02*
X49289655Y-51037400D01*
X49289655Y-51037400D02*
X49218226Y-50965971D01*
X49218226Y-50965971D02*
X49146797Y-50823114D01*
X49146797Y-50823114D02*
X49075369Y-50537400D01*
X49075369Y-50537400D02*
X49075369Y-50180257D01*
X49075369Y-50180257D02*
X49146797Y-49894542D01*
X49146797Y-49894542D02*
X49218226Y-49751685D01*
X49218226Y-49751685D02*
X49289655Y-49680257D01*
X49289655Y-49680257D02*
X49432512Y-49608828D01*
X50575368Y-50965971D02*
X50646797Y-51037400D01*
X50646797Y-51037400D02*
X50575368Y-51108828D01*
X50575368Y-51108828D02*
X50503940Y-51037400D01*
X50503940Y-51037400D02*
X50575368Y-50965971D01*
X50575368Y-50965971D02*
X50575368Y-51108828D01*
X51218226Y-49751685D02*
X51289654Y-49680257D01*
X51289654Y-49680257D02*
X51432512Y-49608828D01*
X51432512Y-49608828D02*
X51789654Y-49608828D01*
X51789654Y-49608828D02*
X51932512Y-49680257D01*
X51932512Y-49680257D02*
X52003940Y-49751685D01*
X52003940Y-49751685D02*
X52075369Y-49894542D01*
X52075369Y-49894542D02*
X52075369Y-50037400D01*
X52075369Y-50037400D02*
X52003940Y-50251685D01*
X52003940Y-50251685D02*
X51146797Y-51108828D01*
X51146797Y-51108828D02*
X52075369Y-51108828D01*
X53861082Y-51108828D02*
X53861082Y-50108828D01*
X53861082Y-50251685D02*
X53932511Y-50180257D01*
X53932511Y-50180257D02*
X54075368Y-50108828D01*
X54075368Y-50108828D02*
X54289654Y-50108828D01*
X54289654Y-50108828D02*
X54432511Y-50180257D01*
X54432511Y-50180257D02*
X54503940Y-50323114D01*
X54503940Y-50323114D02*
X54503940Y-51108828D01*
X54503940Y-50323114D02*
X54575368Y-50180257D01*
X54575368Y-50180257D02*
X54718225Y-50108828D01*
X54718225Y-50108828D02*
X54932511Y-50108828D01*
X54932511Y-50108828D02*
X55075368Y-50180257D01*
X55075368Y-50180257D02*
X55146797Y-50323114D01*
X55146797Y-50323114D02*
X55146797Y-51108828D01*
X55861082Y-51108828D02*
X55861082Y-50108828D01*
X55861082Y-50251685D02*
X55932511Y-50180257D01*
X55932511Y-50180257D02*
X56075368Y-50108828D01*
X56075368Y-50108828D02*
X56289654Y-50108828D01*
X56289654Y-50108828D02*
X56432511Y-50180257D01*
X56432511Y-50180257D02*
X56503940Y-50323114D01*
X56503940Y-50323114D02*
X56503940Y-51108828D01*
X56503940Y-50323114D02*
X56575368Y-50180257D01*
X56575368Y-50180257D02*
X56718225Y-50108828D01*
X56718225Y-50108828D02*
X56932511Y-50108828D01*
X56932511Y-50108828D02*
X57075368Y-50180257D01*
X57075368Y-50180257D02*
X57146797Y-50323114D01*
X57146797Y-50323114D02*
X57146797Y-51108828D01*
D11*
X140315333Y-90243819D02*
X139982000Y-89767628D01*
X139743905Y-90243819D02*
X139743905Y-89243819D01*
X139743905Y-89243819D02*
X140124857Y-89243819D01*
X140124857Y-89243819D02*
X140220095Y-89291438D01*
X140220095Y-89291438D02*
X140267714Y-89339057D01*
X140267714Y-89339057D02*
X140315333Y-89434295D01*
X140315333Y-89434295D02*
X140315333Y-89577152D01*
X140315333Y-89577152D02*
X140267714Y-89672390D01*
X140267714Y-89672390D02*
X140220095Y-89720009D01*
X140220095Y-89720009D02*
X140124857Y-89767628D01*
X140124857Y-89767628D02*
X139743905Y-89767628D01*
X140696286Y-89339057D02*
X140743905Y-89291438D01*
X140743905Y-89291438D02*
X140839143Y-89243819D01*
X140839143Y-89243819D02*
X141077238Y-89243819D01*
X141077238Y-89243819D02*
X141172476Y-89291438D01*
X141172476Y-89291438D02*
X141220095Y-89339057D01*
X141220095Y-89339057D02*
X141267714Y-89434295D01*
X141267714Y-89434295D02*
X141267714Y-89529533D01*
X141267714Y-89529533D02*
X141220095Y-89672390D01*
X141220095Y-89672390D02*
X140648667Y-90243819D01*
X140648667Y-90243819D02*
X141267714Y-90243819D01*
X140381333Y-95831819D02*
X140048000Y-95355628D01*
X139809905Y-95831819D02*
X139809905Y-94831819D01*
X139809905Y-94831819D02*
X140190857Y-94831819D01*
X140190857Y-94831819D02*
X140286095Y-94879438D01*
X140286095Y-94879438D02*
X140333714Y-94927057D01*
X140333714Y-94927057D02*
X140381333Y-95022295D01*
X140381333Y-95022295D02*
X140381333Y-95165152D01*
X140381333Y-95165152D02*
X140333714Y-95260390D01*
X140333714Y-95260390D02*
X140286095Y-95308009D01*
X140286095Y-95308009D02*
X140190857Y-95355628D01*
X140190857Y-95355628D02*
X139809905Y-95355628D01*
X140714667Y-94831819D02*
X141333714Y-94831819D01*
X141333714Y-94831819D02*
X141000381Y-95212771D01*
X141000381Y-95212771D02*
X141143238Y-95212771D01*
X141143238Y-95212771D02*
X141238476Y-95260390D01*
X141238476Y-95260390D02*
X141286095Y-95308009D01*
X141286095Y-95308009D02*
X141333714Y-95403247D01*
X141333714Y-95403247D02*
X141333714Y-95641342D01*
X141333714Y-95641342D02*
X141286095Y-95736580D01*
X141286095Y-95736580D02*
X141238476Y-95784200D01*
X141238476Y-95784200D02*
X141143238Y-95831819D01*
X141143238Y-95831819D02*
X140857524Y-95831819D01*
X140857524Y-95831819D02*
X140762286Y-95784200D01*
X140762286Y-95784200D02*
X140714667Y-95736580D01*
X139904333Y-84655819D02*
X139571000Y-84179628D01*
X139332905Y-84655819D02*
X139332905Y-83655819D01*
X139332905Y-83655819D02*
X139713857Y-83655819D01*
X139713857Y-83655819D02*
X139809095Y-83703438D01*
X139809095Y-83703438D02*
X139856714Y-83751057D01*
X139856714Y-83751057D02*
X139904333Y-83846295D01*
X139904333Y-83846295D02*
X139904333Y-83989152D01*
X139904333Y-83989152D02*
X139856714Y-84084390D01*
X139856714Y-84084390D02*
X139809095Y-84132009D01*
X139809095Y-84132009D02*
X139713857Y-84179628D01*
X139713857Y-84179628D02*
X139332905Y-84179628D01*
X140856714Y-84655819D02*
X140285286Y-84655819D01*
X140571000Y-84655819D02*
X140571000Y-83655819D01*
X140571000Y-83655819D02*
X140475762Y-83798676D01*
X140475762Y-83798676D02*
X140380524Y-83893914D01*
X140380524Y-83893914D02*
X140285286Y-83941533D01*
D12*
%TO.C,D2*%
X136890000Y-85759000D02*
X136890000Y-85915000D01*
X136890000Y-88075000D02*
X136890000Y-88231000D01*
X136890001Y-85759485D02*
G75*
G02*
X140122334Y-85916392I1559999J-1235515D01*
G01*
X137409040Y-85915001D02*
G75*
G02*
X139491129Y-85915164I1040960J-1079999D01*
G01*
X139491129Y-88074836D02*
G75*
G02*
X137409040Y-88074999I-1041129J1079836D01*
G01*
X140122334Y-88073608D02*
G75*
G02*
X136890001Y-88230515I-1672334J1078608D01*
G01*
%TO.C,J1*%
X132618000Y-101641000D02*
X133838000Y-101641000D01*
X132618000Y-108841000D02*
X133838000Y-108841000D01*
X132618000Y-110061000D02*
X132618000Y-101641000D01*
X133838000Y-101641000D02*
X133838000Y-103841000D01*
X133838000Y-103841000D02*
X132618000Y-103841000D01*
X133838000Y-108841000D02*
X133838000Y-103841000D01*
X134908000Y-104841000D02*
X135228000Y-104841000D01*
X134908000Y-108261000D02*
X134908000Y-104841000D01*
X135228000Y-104841000D02*
X135548000Y-104841000D01*
X135228000Y-108341000D02*
X134908000Y-108261000D01*
X135548000Y-104841000D02*
X135548000Y-108261000D01*
X135548000Y-108261000D02*
X135228000Y-108341000D01*
X136558000Y-103841000D02*
X136398000Y-103841000D01*
X137408000Y-104841000D02*
X137728000Y-104841000D01*
X137408000Y-108261000D02*
X137408000Y-104841000D01*
X137728000Y-104841000D02*
X138048000Y-104841000D01*
X137728000Y-108341000D02*
X137408000Y-108261000D01*
X138048000Y-104841000D02*
X138048000Y-108261000D01*
X138048000Y-108261000D02*
X137728000Y-108341000D01*
X139058000Y-103841000D02*
X138898000Y-103841000D01*
X139908000Y-104841000D02*
X140228000Y-104841000D01*
X139908000Y-108261000D02*
X139908000Y-104841000D01*
X140228000Y-104841000D02*
X140548000Y-104841000D01*
X140228000Y-108341000D02*
X139908000Y-108261000D01*
X140548000Y-104841000D02*
X140548000Y-108261000D01*
X140548000Y-108261000D02*
X140228000Y-108341000D01*
X141558000Y-103841000D02*
X141398000Y-103841000D01*
X142408000Y-104841000D02*
X142728000Y-104841000D01*
X142408000Y-108261000D02*
X142408000Y-104841000D01*
X142428000Y-101151000D02*
X142728000Y-101751000D01*
X142728000Y-101751000D02*
X143028000Y-101151000D01*
X142728000Y-104841000D02*
X143048000Y-104841000D01*
X142728000Y-108341000D02*
X142408000Y-108261000D01*
X143028000Y-101151000D02*
X142428000Y-101151000D01*
X143048000Y-104841000D02*
X143048000Y-108261000D01*
X143048000Y-108261000D02*
X142728000Y-108341000D01*
X144118000Y-101641000D02*
X145338000Y-101641000D01*
X144118000Y-103841000D02*
X144118000Y-101641000D01*
X144118000Y-103841000D02*
X145338000Y-103841000D01*
X144118000Y-104841000D02*
X133838000Y-104841000D01*
X144118000Y-108841000D02*
X144118000Y-103841000D01*
X145338000Y-101641000D02*
X145338000Y-110061000D01*
X145338000Y-108841000D02*
X144118000Y-108841000D01*
X145338000Y-110061000D02*
X132618000Y-110061000D01*
%TO.C,D1*%
X136890000Y-80171000D02*
X136890000Y-80327000D01*
X136890000Y-82487000D02*
X136890000Y-82643000D01*
X136890001Y-80171485D02*
G75*
G02*
X140122334Y-80328392I1559999J-1235515D01*
G01*
X137409040Y-80327001D02*
G75*
G02*
X139491129Y-80327164I1040960J-1079999D01*
G01*
X139491129Y-82486836D02*
G75*
G02*
X137409040Y-82486999I-1041129J1079836D01*
G01*
X140122334Y-82485608D02*
G75*
G02*
X136890001Y-82642515I-1672334J1078608D01*
G01*
%TO.C,D3*%
X136890000Y-91347000D02*
X136890000Y-91503000D01*
X136890000Y-93663000D02*
X136890000Y-93819000D01*
X136890001Y-91347485D02*
G75*
G02*
X140122334Y-91504392I1559999J-1235515D01*
G01*
X137409040Y-91503001D02*
G75*
G02*
X139491129Y-91503164I1040960J-1079999D01*
G01*
X139491129Y-93662836D02*
G75*
G02*
X137409040Y-93662999I-1041129J1079836D01*
G01*
X140122334Y-93661608D02*
G75*
G02*
X136890001Y-93818515I-1672334J1078608D01*
G01*
%TD*%
M02*
