%TF.GenerationSoftware,KiCad,Pcbnew,8.0.1*%
%TF.CreationDate,2024-04-21T19:07:30-04:00*%
%TF.ProjectId,Semaforo,53656d61-666f-4726-9f2e-6b696361645f,Andres La Madrid*%
%TF.SameCoordinates,Original*%
%TF.FileFunction,Copper,L2,Bot*%
%TF.FilePolarity,Positive*%
%FSLAX46Y46*%
G04 Gerber Fmt 4.6, Leading zero omitted, Abs format (unit mm)*
G04 Created by KiCad (PCBNEW 8.0.1) date 2024-04-21 19:07:30*
%MOMM*%
%LPD*%
G01*
G04 APERTURE LIST*
G04 Aperture macros list*
%AMRoundRect*
0 Rectangle with rounded corners*
0 $1 Rounding radius*
0 $2 $3 $4 $5 $6 $7 $8 $9 X,Y pos of 4 corners*
0 Add a 4 corners polygon primitive as box body*
4,1,4,$2,$3,$4,$5,$6,$7,$8,$9,$2,$3,0*
0 Add four circle primitives for the rounded corners*
1,1,$1+$1,$2,$3*
1,1,$1+$1,$4,$5*
1,1,$1+$1,$6,$7*
1,1,$1+$1,$8,$9*
0 Add four rect primitives between the rounded corners*
20,1,$1+$1,$2,$3,$4,$5,0*
20,1,$1+$1,$4,$5,$6,$7,0*
20,1,$1+$1,$6,$7,$8,$9,0*
20,1,$1+$1,$8,$9,$2,$3,0*%
G04 Aperture macros list end*
%TA.AperFunction,ComponentPad*%
%ADD10R,1.800000X1.800000*%
%TD*%
%TA.AperFunction,ComponentPad*%
%ADD11C,1.800000*%
%TD*%
%TA.AperFunction,ComponentPad*%
%ADD12RoundRect,0.250000X0.600000X0.725000X-0.600000X0.725000X-0.600000X-0.725000X0.600000X-0.725000X0*%
%TD*%
%TA.AperFunction,ComponentPad*%
%ADD13O,1.700000X1.950000*%
%TD*%
%TA.AperFunction,ComponentPad*%
%ADD14C,3.500000*%
%TD*%
%TA.AperFunction,ViaPad*%
%ADD15C,0.600000*%
%TD*%
%TA.AperFunction,Conductor*%
%ADD16C,0.300000*%
%TD*%
G04 APERTURE END LIST*
D10*
%TO.P,D2,1,K*%
%TO.N,Net-(D1-K)*%
X137180000Y-86995000D03*
D11*
%TO.P,D2,2,A*%
%TO.N,Net-(D2-A)*%
X139720000Y-86995000D03*
%TD*%
D12*
%TO.P,J1,1,Pin_1*%
%TO.N,Net-(D1-K)*%
X142728000Y-103251000D03*
D13*
%TO.P,J1,2,Pin_2*%
%TO.N,Net-(J1-Pin_2)*%
X140228000Y-103251000D03*
%TO.P,J1,3,Pin_3*%
%TO.N,Net-(J1-Pin_3)*%
X137728000Y-103251000D03*
%TO.P,J1,4,Pin_4*%
%TO.N,Net-(J1-Pin_4)*%
X135228000Y-103251000D03*
%TD*%
D10*
%TO.P,D1,1,K*%
%TO.N,Net-(D1-K)*%
X137180000Y-81407000D03*
D11*
%TO.P,D1,2,A*%
%TO.N,Net-(D1-A)*%
X139720000Y-81407000D03*
%TD*%
D10*
%TO.P,D3,1,K*%
%TO.N,Net-(D1-K)*%
X137180000Y-92583000D03*
D11*
%TO.P,D3,2,A*%
%TO.N,Net-(D3-A)*%
X139720000Y-92583000D03*
%TD*%
D14*
%TO.P,REF\u002A\u002A,1*%
%TO.N,GND*%
X138704000Y-98425000D03*
%TD*%
D15*
%TO.N,Net-(J1-Pin_3)*%
X139974000Y-89789000D03*
X140482000Y-100965000D03*
%TD*%
D16*
%TO.N,Net-(J1-Pin_3)*%
X140736000Y-89789000D02*
X139974000Y-89789000D01*
X140970000Y-100477000D02*
X140970000Y-90023000D01*
X140482000Y-100965000D02*
X140970000Y-100477000D01*
X140970000Y-90023000D02*
X140736000Y-89789000D01*
%TD*%
%TA.AperFunction,Conductor*%
%TO.N,GND*%
G36*
X138728063Y-93582992D02*
G01*
X138759866Y-93607843D01*
X138767302Y-93615920D01*
X138768215Y-93616912D01*
X138768222Y-93616918D01*
X138951365Y-93759464D01*
X138951371Y-93759468D01*
X138951374Y-93759470D01*
X139155497Y-93869936D01*
X139269487Y-93909068D01*
X139375015Y-93945297D01*
X139375017Y-93945297D01*
X139375019Y-93945298D01*
X139603951Y-93983500D01*
X139603952Y-93983500D01*
X139836048Y-93983500D01*
X139836049Y-93983500D01*
X140064981Y-93945298D01*
X140155237Y-93914312D01*
X140225035Y-93911163D01*
X140285457Y-93946249D01*
X140317317Y-94008431D01*
X140319500Y-94031594D01*
X140319500Y-100085786D01*
X140299815Y-100152825D01*
X140247011Y-100198580D01*
X140236454Y-100202828D01*
X140132478Y-100239210D01*
X139979737Y-100335184D01*
X139852184Y-100462737D01*
X139756211Y-100615476D01*
X139696631Y-100785745D01*
X139696630Y-100785750D01*
X139676435Y-100964996D01*
X139676435Y-100965003D01*
X139696630Y-101144249D01*
X139696631Y-101144254D01*
X139756211Y-101314523D01*
X139852184Y-101467262D01*
X139983045Y-101598123D01*
X140016530Y-101659446D01*
X140011546Y-101729138D01*
X139969674Y-101785071D01*
X139916482Y-101807553D01*
X139916497Y-101807616D01*
X139916122Y-101807705D01*
X139914776Y-101808275D01*
X139911764Y-101808752D01*
X139911760Y-101808753D01*
X139709585Y-101874444D01*
X139520179Y-101970951D01*
X139348213Y-102095890D01*
X139197894Y-102246209D01*
X139197890Y-102246214D01*
X139078318Y-102410793D01*
X139022989Y-102453459D01*
X138953375Y-102459438D01*
X138891580Y-102426833D01*
X138877682Y-102410793D01*
X138758109Y-102246214D01*
X138758105Y-102246209D01*
X138607786Y-102095890D01*
X138435820Y-101970951D01*
X138246414Y-101874444D01*
X138246413Y-101874443D01*
X138246412Y-101874443D01*
X138044243Y-101808754D01*
X138044241Y-101808753D01*
X138044240Y-101808753D01*
X137882957Y-101783208D01*
X137834287Y-101775500D01*
X137621713Y-101775500D01*
X137573042Y-101783208D01*
X137411760Y-101808753D01*
X137209585Y-101874444D01*
X137020179Y-101970951D01*
X136848213Y-102095890D01*
X136697894Y-102246209D01*
X136697890Y-102246214D01*
X136578318Y-102410793D01*
X136522989Y-102453459D01*
X136453375Y-102459438D01*
X136391580Y-102426833D01*
X136377682Y-102410793D01*
X136258109Y-102246214D01*
X136258105Y-102246209D01*
X136107786Y-102095890D01*
X135935820Y-101970951D01*
X135746414Y-101874444D01*
X135746413Y-101874443D01*
X135746412Y-101874443D01*
X135544243Y-101808754D01*
X135544241Y-101808753D01*
X135544240Y-101808753D01*
X135382957Y-101783208D01*
X135334287Y-101775500D01*
X135121713Y-101775500D01*
X135073042Y-101783208D01*
X134911760Y-101808753D01*
X134709585Y-101874444D01*
X134520179Y-101970951D01*
X134348213Y-102095890D01*
X134197890Y-102246213D01*
X134072951Y-102418179D01*
X133976444Y-102607585D01*
X133910753Y-102809760D01*
X133877500Y-103019713D01*
X133877500Y-103482286D01*
X133910753Y-103692239D01*
X133976444Y-103894414D01*
X134072951Y-104083820D01*
X134197890Y-104255786D01*
X134348213Y-104406109D01*
X134520179Y-104531048D01*
X134520181Y-104531049D01*
X134520184Y-104531051D01*
X134709588Y-104627557D01*
X134911757Y-104693246D01*
X135121713Y-104726500D01*
X135121714Y-104726500D01*
X135334286Y-104726500D01*
X135334287Y-104726500D01*
X135544243Y-104693246D01*
X135746412Y-104627557D01*
X135935816Y-104531051D01*
X135957789Y-104515086D01*
X136107786Y-104406109D01*
X136107788Y-104406106D01*
X136107792Y-104406104D01*
X136258104Y-104255792D01*
X136377683Y-104091204D01*
X136433011Y-104048540D01*
X136502624Y-104042561D01*
X136564420Y-104075166D01*
X136578313Y-104091199D01*
X136681925Y-104233809D01*
X136697896Y-104255792D01*
X136848213Y-104406109D01*
X137020179Y-104531048D01*
X137020181Y-104531049D01*
X137020184Y-104531051D01*
X137209588Y-104627557D01*
X137411757Y-104693246D01*
X137621713Y-104726500D01*
X137621714Y-104726500D01*
X137834286Y-104726500D01*
X137834287Y-104726500D01*
X138044243Y-104693246D01*
X138246412Y-104627557D01*
X138435816Y-104531051D01*
X138457789Y-104515086D01*
X138607786Y-104406109D01*
X138607788Y-104406106D01*
X138607792Y-104406104D01*
X138758104Y-104255792D01*
X138877683Y-104091204D01*
X138933011Y-104048540D01*
X139002624Y-104042561D01*
X139064420Y-104075166D01*
X139078313Y-104091199D01*
X139181925Y-104233809D01*
X139197896Y-104255792D01*
X139348213Y-104406109D01*
X139520179Y-104531048D01*
X139520181Y-104531049D01*
X139520184Y-104531051D01*
X139709588Y-104627557D01*
X139911757Y-104693246D01*
X140121713Y-104726500D01*
X140121714Y-104726500D01*
X140334286Y-104726500D01*
X140334287Y-104726500D01*
X140544243Y-104693246D01*
X140746412Y-104627557D01*
X140935816Y-104531051D01*
X141107792Y-104406104D01*
X141246604Y-104267291D01*
X141307923Y-104233809D01*
X141377615Y-104238793D01*
X141433549Y-104280664D01*
X141439821Y-104289878D01*
X141443185Y-104295333D01*
X141443186Y-104295334D01*
X141535288Y-104444656D01*
X141659344Y-104568712D01*
X141808666Y-104660814D01*
X141975203Y-104715999D01*
X142077991Y-104726500D01*
X143378008Y-104726499D01*
X143480797Y-104715999D01*
X143647334Y-104660814D01*
X143796656Y-104568712D01*
X143920712Y-104444656D01*
X144012814Y-104295334D01*
X144067999Y-104128797D01*
X144078500Y-104026009D01*
X144078499Y-102475992D01*
X144067999Y-102373203D01*
X144012814Y-102206666D01*
X143920712Y-102057344D01*
X143796656Y-101933288D01*
X143701253Y-101874443D01*
X143647336Y-101841187D01*
X143647331Y-101841185D01*
X143645862Y-101840698D01*
X143480797Y-101786001D01*
X143480795Y-101786000D01*
X143378010Y-101775500D01*
X142077998Y-101775500D01*
X142077981Y-101775501D01*
X141975203Y-101786000D01*
X141975200Y-101786001D01*
X141808668Y-101841185D01*
X141808663Y-101841187D01*
X141659342Y-101933289D01*
X141535289Y-102057342D01*
X141439821Y-102212121D01*
X141387873Y-102258845D01*
X141318910Y-102270068D01*
X141254828Y-102242224D01*
X141246601Y-102234705D01*
X141107786Y-102095890D01*
X140935819Y-101970951D01*
X140935818Y-101970950D01*
X140935816Y-101970949D01*
X140861902Y-101933288D01*
X140825453Y-101914716D01*
X140774657Y-101866741D01*
X140757862Y-101798920D01*
X140780400Y-101732785D01*
X140827951Y-101692509D01*
X140831520Y-101690790D01*
X140831522Y-101690789D01*
X140984262Y-101594816D01*
X141111816Y-101467262D01*
X141207789Y-101314522D01*
X141267368Y-101144255D01*
X141268182Y-101137025D01*
X141295245Y-101072611D01*
X141303703Y-101063241D01*
X141397213Y-100969731D01*
X141458535Y-100936249D01*
X141528226Y-100941233D01*
X141584160Y-100983105D01*
X141592276Y-100995409D01*
X141605500Y-101018314D01*
X141698686Y-101111500D01*
X141812814Y-101177392D01*
X141940108Y-101211500D01*
X145445500Y-101211500D01*
X145512539Y-101231185D01*
X145558294Y-101283989D01*
X145569500Y-101335500D01*
X145569500Y-109992500D01*
X145549815Y-110059539D01*
X145497011Y-110105294D01*
X145445500Y-110116500D01*
X132470500Y-110116500D01*
X132403461Y-110096815D01*
X132357706Y-110044011D01*
X132346500Y-109992500D01*
X132346500Y-101335500D01*
X132366185Y-101268461D01*
X132418989Y-101222706D01*
X132470500Y-101211500D01*
X135721890Y-101211500D01*
X135721892Y-101211500D01*
X135849186Y-101177392D01*
X135963314Y-101111500D01*
X136056500Y-101018314D01*
X136122392Y-100904186D01*
X136156500Y-100776892D01*
X136156500Y-94107499D01*
X136176185Y-94040460D01*
X136228989Y-93994705D01*
X136280495Y-93983499D01*
X138127872Y-93983499D01*
X138187483Y-93977091D01*
X138322331Y-93926796D01*
X138437546Y-93840546D01*
X138523796Y-93725331D01*
X138552455Y-93648493D01*
X138594326Y-93592559D01*
X138659790Y-93568141D01*
X138728063Y-93582992D01*
G37*
%TD.AperFunction*%
%TD*%
%TA.AperFunction,NonConductor*%
G36*
X141448539Y-78879185D02*
G01*
X141494294Y-78931989D01*
X141505500Y-78983500D01*
X141505500Y-89339191D01*
X141485815Y-89406230D01*
X141433011Y-89451985D01*
X141363853Y-89461929D01*
X141300297Y-89432904D01*
X141293819Y-89426872D01*
X141150673Y-89283726D01*
X141150669Y-89283723D01*
X141044127Y-89212535D01*
X140925744Y-89163499D01*
X140925738Y-89163497D01*
X140800071Y-89138500D01*
X140800069Y-89138500D01*
X140479068Y-89138500D01*
X140413096Y-89119494D01*
X140323522Y-89063210D01*
X140323518Y-89063209D01*
X140153262Y-89003633D01*
X140153249Y-89003630D01*
X139974004Y-88983435D01*
X139973996Y-88983435D01*
X139794750Y-89003630D01*
X139794745Y-89003631D01*
X139624476Y-89063211D01*
X139471737Y-89159184D01*
X139344184Y-89286737D01*
X139248211Y-89439476D01*
X139188631Y-89609745D01*
X139188630Y-89609750D01*
X139168435Y-89788996D01*
X139168435Y-89789003D01*
X139188630Y-89968249D01*
X139188631Y-89968254D01*
X139248211Y-90138523D01*
X139344184Y-90291262D01*
X139471738Y-90418816D01*
X139624478Y-90514789D01*
X139783268Y-90570352D01*
X139794745Y-90574368D01*
X139794750Y-90574369D01*
X139973996Y-90594565D01*
X139974000Y-90594565D01*
X139974004Y-90594565D01*
X140153246Y-90574369D01*
X140153245Y-90574369D01*
X140153255Y-90574368D01*
X140154541Y-90573917D01*
X140155423Y-90573872D01*
X140160039Y-90572819D01*
X140160223Y-90573627D01*
X140224316Y-90570352D01*
X140284946Y-90605076D01*
X140317177Y-90667067D01*
X140319500Y-90690957D01*
X140319500Y-91134405D01*
X140299815Y-91201444D01*
X140247011Y-91247199D01*
X140177853Y-91257143D01*
X140155238Y-91251686D01*
X140064986Y-91220702D01*
X139874204Y-91188867D01*
X139836049Y-91182500D01*
X139603951Y-91182500D01*
X139565550Y-91188908D01*
X139375015Y-91220702D01*
X139155504Y-91296061D01*
X139155495Y-91296064D01*
X138951371Y-91406531D01*
X138951365Y-91406535D01*
X138768222Y-91549081D01*
X138768218Y-91549085D01*
X138759866Y-91558158D01*
X138699979Y-91594148D01*
X138630141Y-91592047D01*
X138572525Y-91552522D01*
X138552455Y-91517507D01*
X138523797Y-91440671D01*
X138523793Y-91440664D01*
X138437547Y-91325455D01*
X138437544Y-91325452D01*
X138322335Y-91239206D01*
X138322328Y-91239202D01*
X138187482Y-91188908D01*
X138187483Y-91188908D01*
X138127883Y-91182501D01*
X138127881Y-91182500D01*
X138127873Y-91182500D01*
X138127865Y-91182500D01*
X136280500Y-91182500D01*
X136213461Y-91162815D01*
X136167706Y-91110011D01*
X136156500Y-91058500D01*
X136156500Y-88519499D01*
X136176185Y-88452460D01*
X136228989Y-88406705D01*
X136280495Y-88395499D01*
X138127872Y-88395499D01*
X138187483Y-88389091D01*
X138322331Y-88338796D01*
X138437546Y-88252546D01*
X138523796Y-88137331D01*
X138552455Y-88060493D01*
X138594326Y-88004559D01*
X138659790Y-87980141D01*
X138728063Y-87994992D01*
X138759866Y-88019843D01*
X138767302Y-88027920D01*
X138768215Y-88028912D01*
X138768222Y-88028918D01*
X138951365Y-88171464D01*
X138951371Y-88171468D01*
X138951374Y-88171470D01*
X139155497Y-88281936D01*
X139269487Y-88321068D01*
X139375015Y-88357297D01*
X139375017Y-88357297D01*
X139375019Y-88357298D01*
X139603951Y-88395500D01*
X139603952Y-88395500D01*
X139836048Y-88395500D01*
X139836049Y-88395500D01*
X140064981Y-88357298D01*
X140284503Y-88281936D01*
X140488626Y-88171470D01*
X140671784Y-88028913D01*
X140828979Y-87858153D01*
X140955924Y-87663849D01*
X141049157Y-87451300D01*
X141106134Y-87226305D01*
X141125300Y-86995000D01*
X141125300Y-86994993D01*
X141106135Y-86763702D01*
X141106133Y-86763691D01*
X141049157Y-86538699D01*
X140955924Y-86326151D01*
X140828983Y-86131852D01*
X140828980Y-86131849D01*
X140828979Y-86131847D01*
X140671784Y-85961087D01*
X140671779Y-85961083D01*
X140671777Y-85961081D01*
X140488634Y-85818535D01*
X140488628Y-85818531D01*
X140284504Y-85708064D01*
X140284495Y-85708061D01*
X140064984Y-85632702D01*
X139874450Y-85600908D01*
X139836049Y-85594500D01*
X139603951Y-85594500D01*
X139565550Y-85600908D01*
X139375015Y-85632702D01*
X139155504Y-85708061D01*
X139155495Y-85708064D01*
X138951371Y-85818531D01*
X138951365Y-85818535D01*
X138768222Y-85961081D01*
X138768218Y-85961085D01*
X138759866Y-85970158D01*
X138699979Y-86006148D01*
X138630141Y-86004047D01*
X138572525Y-85964522D01*
X138552455Y-85929507D01*
X138523797Y-85852671D01*
X138523793Y-85852664D01*
X138437547Y-85737455D01*
X138437544Y-85737452D01*
X138322335Y-85651206D01*
X138322328Y-85651202D01*
X138187482Y-85600908D01*
X138187483Y-85600908D01*
X138127883Y-85594501D01*
X138127881Y-85594500D01*
X138127873Y-85594500D01*
X138127865Y-85594500D01*
X136280500Y-85594500D01*
X136213461Y-85574815D01*
X136167706Y-85522011D01*
X136156500Y-85470500D01*
X136156500Y-82931499D01*
X136176185Y-82864460D01*
X136228989Y-82818705D01*
X136280495Y-82807499D01*
X138127872Y-82807499D01*
X138187483Y-82801091D01*
X138322331Y-82750796D01*
X138437546Y-82664546D01*
X138523796Y-82549331D01*
X138552455Y-82472493D01*
X138594326Y-82416559D01*
X138659790Y-82392141D01*
X138728063Y-82406992D01*
X138759866Y-82431843D01*
X138767302Y-82439920D01*
X138768215Y-82440912D01*
X138768222Y-82440918D01*
X138951365Y-82583464D01*
X138951371Y-82583468D01*
X138951374Y-82583470D01*
X139155497Y-82693936D01*
X139269487Y-82733068D01*
X139375015Y-82769297D01*
X139375017Y-82769297D01*
X139375019Y-82769298D01*
X139603951Y-82807500D01*
X139603952Y-82807500D01*
X139836048Y-82807500D01*
X139836049Y-82807500D01*
X140064981Y-82769298D01*
X140284503Y-82693936D01*
X140488626Y-82583470D01*
X140671784Y-82440913D01*
X140828979Y-82270153D01*
X140955924Y-82075849D01*
X141049157Y-81863300D01*
X141106134Y-81638305D01*
X141125300Y-81407000D01*
X141125300Y-81406993D01*
X141106135Y-81175702D01*
X141106133Y-81175691D01*
X141049157Y-80950699D01*
X140955924Y-80738151D01*
X140828983Y-80543852D01*
X140828980Y-80543849D01*
X140828979Y-80543847D01*
X140671784Y-80373087D01*
X140671779Y-80373083D01*
X140671777Y-80373081D01*
X140488634Y-80230535D01*
X140488628Y-80230531D01*
X140284504Y-80120064D01*
X140284495Y-80120061D01*
X140064984Y-80044702D01*
X139874450Y-80012908D01*
X139836049Y-80006500D01*
X139603951Y-80006500D01*
X139565550Y-80012908D01*
X139375015Y-80044702D01*
X139155504Y-80120061D01*
X139155495Y-80120064D01*
X138951371Y-80230531D01*
X138951365Y-80230535D01*
X138768222Y-80373081D01*
X138768218Y-80373085D01*
X138759866Y-80382158D01*
X138699979Y-80418148D01*
X138630141Y-80416047D01*
X138572525Y-80376522D01*
X138552455Y-80341507D01*
X138523797Y-80264671D01*
X138523793Y-80264664D01*
X138437547Y-80149455D01*
X138437544Y-80149452D01*
X138322335Y-80063206D01*
X138322328Y-80063202D01*
X138187482Y-80012908D01*
X138187483Y-80012908D01*
X138127883Y-80006501D01*
X138127881Y-80006500D01*
X138127873Y-80006500D01*
X138127865Y-80006500D01*
X136280500Y-80006500D01*
X136213461Y-79986815D01*
X136167706Y-79934011D01*
X136156500Y-79882500D01*
X136156500Y-78983500D01*
X136176185Y-78916461D01*
X136228989Y-78870706D01*
X136280500Y-78859500D01*
X141381500Y-78859500D01*
X141448539Y-78879185D01*
G37*
%TD.AperFunction*%
M02*
